<svg xmlns="http://www.w3.org/2000/svg" width="41" height="41" viewBox="0 0 41 41"><defs><style>.a,.b{fill:#707070;}.b{fill-rule:evenodd;}</style></defs><path class="a" d="M20.375,10.688A7.688,7.688,0,1,1,12.688,3,7.688,7.688,0,0,1,20.375,10.688Z" transform="translate(7.813 4.688)"/><path class="b" d="M0,20.5A20.5,20.5,0,1,1,20.5,41,20.5,20.5,0,0,1,0,20.5ZM20.5,2.563A17.938,17.938,0,0,0,6.488,31.7c1.819-2.932,5.825-6.073,14.012-6.073S32.69,28.764,34.512,31.7A17.938,17.938,0,0,0,20.5,2.563Z"/></svg>