<svg xmlns="http://www.w3.org/2000/svg" xmlns:xlink="http://www.w3.org/1999/xlink" width="833.139" height="420.542" viewBox="0 0 833.139 420.542"><defs><style>.a,.b{fill:none;stroke:#ff9800;stroke-width:4px;stroke-dasharray:12;}.a{stroke-miterlimit:10;}.c{fill:url(#a);}.d{fill:#009688;}.e{fill:#795548;}.f{fill:url(#b);}.g{fill:url(#c);}.h{fill:#00897b;}.i{fill:url(#e);}.j{fill:url(#f);}.k{fill:url(#g);}.l,.n,.o{fill:#fff;}.m,.t{fill:#283655;}.n{opacity:0.7;}.o{opacity:0.5;}.p{fill:url(#l);}.q,.t{opacity:0.2;}.r{fill:#f2f2f2;}.s{fill:lime;}.u{fill:url(#m);}.v{fill:url(#q);}.w{fill:url(#r);}.x{fill:url(#s);}.y{fill:url(#t);}.z{fill:url(#u);}</style><linearGradient id="a" x1="0.5" y1="1" x2="0.5" gradientUnits="objectBoundingBox"><stop offset="0" stop-color="gray" stop-opacity="0.251"/><stop offset="0.54" stop-color="gray" stop-opacity="0.122"/><stop offset="1" stop-color="gray" stop-opacity="0.102"/></linearGradient><linearGradient id="b" x1="0.5" y1="1" x2="0.5" y2="0" xlink:href="#a"/><linearGradient id="c" x1="0.5" y1="1" x2="0.5" y2="0" xlink:href="#a"/><linearGradient id="e" x1="0.5" y1="1" x2="0.5" y2="0" xlink:href="#a"/><linearGradient id="f" x1="0.501" y1="1" x2="0.501" y2="0" xlink:href="#a"/><linearGradient id="g" x1="0.5" y1="1" x2="0.5" y2="0" xlink:href="#a"/><linearGradient id="l" x1="0.5" y1="1" x2="0.5" y2="0" xlink:href="#a"/><linearGradient id="m" x1="0.5" y1="1" x2="0.5" y2="0" xlink:href="#a"/><linearGradient id="q" x1="0.5" y1="1" x2="0.5" y2="0" xlink:href="#a"/><linearGradient id="r" x1="0.501" y1="1" x2="0.501" y2="0" xlink:href="#a"/><linearGradient id="s" x1="0.5" y1="1" x2="0.5" gradientUnits="objectBoundingBox"><stop offset="0" stop-color="#b3b3b3" stop-opacity="0.251"/><stop offset="0.54" stop-color="#b3b3b3" stop-opacity="0.102"/><stop offset="1" stop-color="#b3b3b3" stop-opacity="0.051"/></linearGradient><linearGradient id="t" x1="0.5" y1="1.001" x2="0.5" gradientUnits="objectBoundingBox"><stop offset="0" stop-opacity="0.122"/><stop offset="0.55" stop-opacity="0.09"/><stop offset="1" stop-opacity="0.02"/></linearGradient><linearGradient id="u" x1="0.5" y1="0.999" x2="0.5" y2="0" xlink:href="#t"/></defs><g transform="translate(0.01 0.013)"><circle class="a" cx="157.25" cy="157.25" r="157.25" transform="translate(29.116 45.393)"/><path class="b" d="M157.25,0A157.25,157.25,0,1,1,0,157.25,157.19,157.19,0,0,1,157.25,0Z" transform="translate(443.841 14.289)"/><g transform="translate(644.136 135.379)"><path class="c" d="M909.567,503.074a38.88,38.88,0,0,1-10.558-26.6,39.494,39.494,0,0,1,19.371-33.757,22.923,22.923,0,0,1-4.044-12.96c0-13.038,10.938-23.6,24.434-23.6a24.322,24.322,0,0,1,23.441,17,36.66,36.66,0,0,1,31.174-17c20.105,0,36.409,15.751,36.409,35.174a34.041,34.041,0,0,1-2.229,12.139c.734-.052,1.477-.112,2.229-.112,16.14,0,29.221,12.64,29.221,28.236a27.562,27.562,0,0,1-.147,2.851,35.065,35.065,0,0,1,21.946,32.21c0,19.362-16.244,35.062-36.288,35.062a37.721,37.721,0,0,1-6.281-.536c.1,1.166.173,2.35.173,3.542,0,21.73-18.231,39.347-40.721,39.347a41.473,41.473,0,0,1-23.19-7.007,30.914,30.914,0,0,1-19.691,7.007c-16.8,0-30.422-13.159-30.422-29.376,0-.7.06-1.391.112-2.082h-.112c-17.989,0-32.573-14.092-32.573-31.476A31.364,31.364,0,0,1,909.567,503.074Z" transform="translate(-891.82 -406.148)"/></g><path class="d" d="M913.5,503.573a37.239,37.239,0,0,1-10.1-25.462A37.8,37.8,0,0,1,921.938,445.8a21.936,21.936,0,0,1-3.871-12.433c0-12.476,10.472-22.594,23.389-22.594A23.328,23.328,0,0,1,963.92,427.03,35.1,35.1,0,0,1,993.7,410.778c19.25,0,34.845,15.077,34.845,33.7a32.592,32.592,0,0,1-2.134,11.621c.708-.052,1.417-.1,2.134-.1,15.448,0,27.968,12.1,27.968,27.026a26.458,26.458,0,0,1-.147,2.73c12.356,5.184,21,17.012,21,30.828,0,18.533-15.552,33.558-34.733,33.558a36.109,36.109,0,0,1-6.051-.51c.106,1.115.167,2.247.167,3.387,0,20.8-17.453,37.654-38.975,37.654a39.744,39.744,0,0,1-22.2-6.7,29.592,29.592,0,0,1-18.775,6.722c-16.079,0-29.117-12.6-29.117-28.132,0-.674.052-1.331.1-2h-.1c-17.22,0-31.182-13.487-31.182-30.128A30.024,30.024,0,0,1,913.5,503.573Z" transform="translate(-248.322 -271.398)"/><line class="e" y2="209.298" transform="translate(731.237 192.785)"/><rect class="f" width="11.396" height="209.289" transform="translate(725.344 192.785)"/><rect class="e" width="6.307" height="209.289" transform="translate(728.083 192.785)"/><line class="e" x1="37.377" y1="38.12" transform="translate(694.499 217.349)"/><rect class="e" width="6.307" height="53.387" transform="matrix(0.714, -0.7, 0.7, 0.714, 692.257, 219.557)"/><line class="e" y1="27.182" x2="38.742" transform="translate(731.876 261.05)"/><rect class="e" width="47.33" height="6.307" transform="translate(730.061 285.635) rotate(-35.06)"/><g transform="translate(571.783 136.883)"><path class="g" d="M973.426,506.983a41.248,41.248,0,0,0-8.51-61.69,24.391,24.391,0,0,0,3.905-13.28c0-13.323-10.558-24.123-23.587-24.123A23.665,23.665,0,0,0,922.6,425.257,34.984,34.984,0,0,0,892.5,407.89c-19.414,0-35.156,16.1-35.156,35.951a36.6,36.6,0,0,0,2.151,12.407c-.708-.052-1.426-.112-2.151-.112-15.552,0-28.219,12.96-28.219,28.858,0,.985.052,1.953.147,2.912a35.865,35.865,0,0,0-21.194,32.919c0,19.794,15.69,35.839,35.036,35.839a34.453,34.453,0,0,0,6.048-.544c-.1,1.192-.164,2.4-.164,3.62,0,22.205,17.6,40.211,39.321,40.211a38.526,38.526,0,0,0,22.386-7.163,28.858,28.858,0,0,0,19.008,7.163c16.226,0,29.376-13.453,29.376-30.042,0-.717-.06-1.426-.1-2.134h.1c17.375,0,31.45-14.4,31.45-32.167a32.244,32.244,0,0,0-17.116-28.625Z" transform="translate(-808.079 -407.89)"/></g><path class="h" d="M969.77,507.721a38.716,38.716,0,0,0-7.992-57.889,22.9,22.9,0,0,0,3.664-12.468,22.066,22.066,0,0,0-43.356-6.35,32.832,32.832,0,0,0-28.253-16.3c-18.222,0-33,15.112-33,33.748a34.365,34.365,0,0,0,2.022,11.647c-.665-.052-1.339-.1-2.022-.1-14.628,0-26.482,12.1-26.482,27.087a25.907,25.907,0,0,0,.138,2.73,33.7,33.7,0,0,0-19.872,30.906c0,18.576,14.688,33.636,32.893,33.636a32.336,32.336,0,0,0,5.694-.51c-.1,1.123-.156,2.255-.156,3.4,0,20.849,16.52,37.74,36.9,37.74a36.159,36.159,0,0,0,21.013-6.722,27.087,27.087,0,0,0,17.842,6.722c15.224,0,27.571-12.623,27.571-28.2,0-.674-.052-1.339-.1-2h.1c16.3,0,29.523-13.522,29.523-30.2A30.24,30.24,0,0,0,969.77,507.721Z" transform="translate(-237.186 -271.934)"/><rect class="g" width="8.571" height="213.221" transform="translate(665.797 192.707)"/><rect class="e" width="4.311" height="210.222" transform="translate(668.233 195.705)"/><rect class="e" width="52.083" height="4.311" transform="translate(667.826 257.614) rotate(-47.2)"/><rect class="e" width="4.311" height="45.698" transform="matrix(0.596, -0.803, 0.803, 0.596, 631.457, 266.467)"/><g transform="translate(559.886 232.235)"><path class="i" d="M806.406,584.338a26.517,26.517,0,0,1-7.189-18.144,26.914,26.914,0,0,1,13.2-23,15.621,15.621,0,0,1-2.756-8.856c0-8.882,7.456-16.088,16.65-16.088a16.58,16.58,0,0,1,15.976,11.578,24.987,24.987,0,0,1,21.246-11.578c13.7,0,24.814,10.731,24.814,23.968a23.2,23.2,0,0,1-1.521,8.277c.5,0,1-.078,1.521-.078,11,0,19.872,8.64,19.872,19.242a18.819,18.819,0,0,1-.1,1.944,23.89,23.89,0,0,1,14.956,21.954c0,13.193-11.068,23.89-24.728,23.89a25.706,25.706,0,0,1-4.32-.363c.078.795.121,1.6.121,2.411,0,14.809-12.424,26.784-27.752,26.784a28.288,28.288,0,0,1-15.734-4.692,21.064,21.064,0,0,1-13.418,4.735c-11.448,0-20.736-8.968-20.736-20.028a8.556,8.556,0,0,1,.078-1.417h-.078c-12.26,0-22.2-9.6-22.2-21.445a21.375,21.375,0,0,1,12.1-19.095Z" transform="translate(-794.31 -518.249)"/></g><path class="d" d="M809.072,584.687a25.376,25.376,0,0,1-6.912-17.349A25.756,25.756,0,0,1,814.8,545.323a14.947,14.947,0,0,1-2.635-8.476,15.675,15.675,0,0,1,15.932-15.4,15.863,15.863,0,0,1,15.293,11.085,23.916,23.916,0,0,1,20.33-11.085c13.116,0,23.752,10.273,23.752,22.948a22.2,22.2,0,0,1-1.451,7.923c.484,0,.959-.069,1.451-.069,10.524,0,19.06,8.243,19.06,18.412a17.985,17.985,0,0,1-.095,1.858,22.87,22.87,0,0,1,14.317,21.013c0,12.632-10.6,22.87-23.674,22.87a24.6,24.6,0,0,1-4.1-.346c.069.76.112,1.529.112,2.307,0,14.17-11.889,25.661-26.56,25.661a27.078,27.078,0,0,1-15.12-4.57,20.165,20.165,0,0,1-12.839,4.57c-10.956,0-19.872-8.58-19.872-19.172a8.853,8.853,0,0,1,.069-1.357h-.069c-11.733,0-21.246-9.193-21.246-20.529a20.459,20.459,0,0,1,11.612-18.282Z" transform="translate(-234.852 -286.449)"/><line class="e" y2="142.622" transform="translate(619.244 271.393)"/><rect class="j" width="7.767" height="142.622" transform="translate(615.226 271.393)"/><rect class="e" width="4.294" height="142.622" transform="translate(617.092 271.393)"/><line class="e" x1="25.462" y1="25.981" transform="translate(594.213 288.128)"/><rect class="e" width="4.294" height="36.375" transform="matrix(0.714, -0.7, 0.7, 0.714, 592.676, 289.63)"/><line class="e" y1="18.524" x2="26.404" transform="translate(619.676 317.911)"/><rect class="e" width="32.254" height="4.294" transform="translate(618.445 334.658) rotate(-35.06)"/><g transform="translate(534.06 236.046)"><path class="k" d="M875.411,589.172a27.648,27.648,0,0,0-5.711-41.4,16.416,16.416,0,0,0,2.592-8.917,15.794,15.794,0,0,0-31.027-4.536,23.484,23.484,0,0,0-20.183-11.656c-13.029,0-23.6,10.8-23.6,24.132a24.575,24.575,0,0,0,1.443,8.329c-.475,0-.959-.078-1.443-.078a19.155,19.155,0,0,0-18.939,19.371,13.33,13.33,0,0,0,.095,1.953,24.071,24.071,0,0,0-14.222,22.1c0,13.28,10.532,24.054,23.518,24.054a23.127,23.127,0,0,0,4.069-.363c-.069.8-.112,1.607-.112,2.428,0,14.9,11.82,26.992,26.387,26.992a25.859,25.859,0,0,0,15.025-4.8,19.371,19.371,0,0,0,12.761,4.8,19.941,19.941,0,0,0,19.717-20.166,9.861,9.861,0,0,0-.069-1.434h.069a21.36,21.36,0,0,0,21.116-21.6A21.643,21.643,0,0,0,875.411,589.172Z" transform="translate(-764.419 -522.66)"/></g><path class="h" d="M872.954,589.672a25.99,25.99,0,0,0-5.365-38.88,15.37,15.37,0,0,0,2.462-8.364,14.826,14.826,0,0,0-29.126-4.26A22.041,22.041,0,0,0,821.96,527.23a22.4,22.4,0,0,0-22.145,22.654,23.063,23.063,0,0,0,1.357,7.819c-.449,0-.864-.069-1.357-.069a17.98,17.98,0,0,0-17.773,18.144,12.846,12.846,0,0,0,.086,1.832,22.594,22.594,0,0,0-13.349,20.736,22.331,22.331,0,0,0,22.076,22.577,21.708,21.708,0,0,0,3.819-.346q-.1,1.128-.1,2.281c0,13.988,11.094,25.333,24.771,25.333a24.271,24.271,0,0,0,14.109-4.51,18.144,18.144,0,0,0,11.975,4.51,18.723,18.723,0,0,0,18.507-18.922,8.861,8.861,0,0,0-.069-1.339h.069a20.045,20.045,0,0,0,19.82-20.27,20.313,20.313,0,0,0-10.8-17.989Z" transform="translate(-230.952 -287.236)"/><rect class="g" width="5.754" height="143.115" transform="translate(597.177 273.518)"/><rect class="e" width="2.894" height="141.102" transform="translate(598.81 275.531)"/><rect class="e" width="34.958" height="2.894" transform="translate(598.531 317.074) rotate(-47.2)"/><rect class="e" width="2.894" height="30.672" transform="matrix(0.596, -0.803, 0.803, 0.596, 574.118, 323.025)"/><rect class="g" width="243.651" height="216.867" transform="translate(350.148 203.326)"/><rect class="l" width="397.445" height="209.955" transform="translate(190.306 203.326)"/><path class="g" d="M787.1,492.743H396.57V390.79H772.846A14.256,14.256,0,0,1,787.1,405.046Z" transform="translate(-180.335 -268.681)"/><path class="m" d="M250.26,146H623.184a14.256,14.256,0,0,1,14.256,14.256v81.036H250.26Z" transform="translate(-34.034 -19.856)"/><path class="n" d="M250.26,146H623.184a14.256,14.256,0,0,1,14.256,14.256v81.036H250.26Z" transform="translate(-34.034 -19.856)"/><path class="g" d="M228.046,13.32,93.26,108.24V422H362.831V108.24Z" transform="translate(-12.684 -1.813)"/><path class="m" d="M358.007,106.642,230.134,13.32,102.26,106.642v78.616H358.007Z" transform="translate(-13.908 -1.813)"/><path class="o" d="M358.007,106.642,230.134,13.32,102.26,106.642v78.616H358.007Z" transform="translate(-13.908 -1.813)"/><rect class="l" width="255.747" height="229.827" transform="translate(88.352 183.454)"/><path class="p" d="M370.072,151.8,225.782,48.767,79.764,151.8l-9.5-36.237L225.782,2.37,381.3,115.564Z" transform="translate(-9.556 -0.324)"/><path class="m" d="M369.766,146.977,226.8,42.924,83.839,146.977,77.73,114.4,226.8,5.91,375.874,114.4Z" transform="translate(-10.572 -0.805)"/><path class="q" d="M369.766,146.977,226.8,42.924,83.839,146.977,77.73,114.4,226.8,5.91,375.874,114.4Z" transform="translate(-10.572 -0.805)"/><rect class="r" width="145.154" height="179.714" transform="translate(143.649 233.566)"/><rect class="m" width="145.154" height="31.104" transform="translate(143.649 233.566)"/><rect class="m" width="145.154" height="31.104" transform="translate(143.649 382.176)"/><path class="s" d="M677.7,652.592a1.3,1.3,0,1,0-1.3-1.3A1.3,1.3,0,0,0,677.7,652.592Z" transform="translate(-218.389 -303.931)"/><rect class="r" width="70.849" height="131.33" transform="translate(423.588 281.951)"/><rect class="r" width="66.529" height="48.385" transform="translate(512.581 254.302)"/><rect class="t" width="66.529" height="21.6" transform="translate(512.581 254.302)"/><g transform="translate(42.327 269.006)"><path class="u" d="M205.408,615.882a22.1,22.1,0,0,1-6.048-15.112A22.464,22.464,0,0,1,210.367,581.6a13.02,13.02,0,0,1-2.3-7.379,13.651,13.651,0,0,1,13.876-13.409,13.824,13.824,0,0,1,13.34,9.668A20.831,20.831,0,0,1,253,560.827c11.422,0,20.684,8.951,20.684,19.984a19.344,19.344,0,0,1-1.27,6.912c.423,0,.864-.06,1.27-.06,9.167,0,16.6,7.18,16.6,16.036a15.671,15.671,0,0,1-.086,1.616,19.916,19.916,0,0,1,12.468,18.3c0,11-9.228,19.915-20.615,19.915a21.413,21.413,0,0,1-3.568-.3c.06.665.1,1.331.1,2.013,0,12.347-10.368,22.352-23.13,22.352a23.579,23.579,0,0,1-13.176-3.983,17.565,17.565,0,0,1-11.189,3.983c-9.5,0-17.28-7.474-17.28-16.7a7.706,7.706,0,0,1,.06-1.184h-.06c-10.221,0-18.507-8.009-18.507-17.876a17.816,17.816,0,0,1,10.118-15.95Z" transform="translate(-195.29 -560.808)"/></g><path class="d" d="M207.612,616.172a21.16,21.16,0,0,1-5.737-14.464,21.471,21.471,0,0,1,10.532-18.352,12.459,12.459,0,0,1-2.195-7.068A13.064,13.064,0,0,1,223.5,563.45a13.228,13.228,0,0,1,12.744,9.236A19.933,19.933,0,0,1,253.2,563.45c10.93,0,19.794,8.562,19.794,19.129a18.515,18.515,0,0,1-1.21,6.6c.4,0,.8-.06,1.21-.06,8.778,0,15.889,6.912,15.889,15.353a15.01,15.01,0,0,1-.078,1.547,19.069,19.069,0,0,1,11.923,17.522c0,10.532-8.83,19.069-19.734,19.069a20.5,20.5,0,0,1-3.454-.293c.058.63.093,1.278.093,1.926,0,11.811-9.91,21.393-22.145,21.393a22.568,22.568,0,0,1-12.564-3.82,16.8,16.8,0,0,1-10.7,3.811c-9.133,0-16.537-7.154-16.537-15.984a7.047,7.047,0,0,1,.06-1.132h-.06c-9.781,0-17.712-7.664-17.712-17.116A17.056,17.056,0,0,1,207.612,616.172Z" transform="translate(-153.328 -292.161)"/><line class="e" y2="118.896" transform="translate(91.817 301.633)"/><rect class="g" width="6.48" height="118.896" transform="translate(88.465 301.633)"/><rect class="e" width="3.577" height="118.896" transform="translate(90.02 301.633)"/><line class="e" x1="21.237" y1="21.661" transform="translate(70.943 315.578)"/><rect class="e" width="3.577" height="30.327" transform="matrix(0.714, -0.7, 0.7, 0.714, 69.666, 316.833)"/><line class="e" y1="15.44" x2="22.006" transform="translate(92.18 340.41)"/><rect class="e" width="26.888" height="3.577" transform="translate(91.148 354.374) rotate(-35.06)"/><g transform="translate(-0.01 269.006)"><path class="u" d="M156.408,615.882a22.1,22.1,0,0,1-6.048-15.112A22.464,22.464,0,0,1,161.367,581.6a13.02,13.02,0,0,1-2.3-7.379,13.651,13.651,0,0,1,13.876-13.409,13.824,13.824,0,0,1,13.34,9.668A20.831,20.831,0,0,1,204,560.827c11.422,0,20.684,8.951,20.684,19.984a19.346,19.346,0,0,1-1.27,6.912c.423,0,.864-.06,1.27-.06,9.167,0,16.6,7.18,16.6,16.036a15.684,15.684,0,0,1-.086,1.616,19.916,19.916,0,0,1,12.468,18.3c0,11-9.228,19.915-20.615,19.915a21.413,21.413,0,0,1-3.568-.3c.06.665.1,1.331.1,2.013,0,12.347-10.368,22.352-23.13,22.352a23.579,23.579,0,0,1-13.176-3.983,17.565,17.565,0,0,1-11.189,3.983c-9.5,0-17.28-7.474-17.28-16.7a7.706,7.706,0,0,1,.06-1.184h-.06c-10.221,0-18.507-8.009-18.507-17.876A17.816,17.816,0,0,1,156.408,615.882Z" transform="translate(-146.29 -560.808)"/></g><path class="d" d="M158.612,616.172a21.16,21.16,0,0,1-5.737-14.464,21.471,21.471,0,0,1,10.532-18.352,12.458,12.458,0,0,1-2.195-7.068A13.064,13.064,0,0,1,174.5,563.45a13.228,13.228,0,0,1,12.744,9.236A19.933,19.933,0,0,1,204.2,563.45c10.93,0,19.794,8.562,19.794,19.129a18.516,18.516,0,0,1-1.21,6.6c.4,0,.8-.06,1.21-.06,8.778,0,15.889,6.912,15.889,15.353a15.015,15.015,0,0,1-.078,1.547,19.069,19.069,0,0,1,11.923,17.522c0,10.532-8.83,19.069-19.734,19.069a20.5,20.5,0,0,1-3.454-.293c.058.63.093,1.278.093,1.926,0,11.811-9.91,21.393-22.145,21.393a22.568,22.568,0,0,1-12.564-3.82,16.8,16.8,0,0,1-10.7,3.811c-9.133,0-16.537-7.154-16.537-15.984a7.047,7.047,0,0,1,.06-1.132h-.06c-9.781,0-17.712-7.664-17.712-17.116A17.056,17.056,0,0,1,158.612,616.172Z" transform="translate(-146.664 -292.161)"/><line class="e" y2="118.896" transform="translate(49.481 301.633)"/><rect class="g" width="6.48" height="118.896" transform="translate(46.128 301.633)"/><rect class="e" width="3.577" height="118.896" transform="translate(47.683 301.633)"/><line class="e" x1="21.237" y1="21.661" transform="translate(28.606 315.578)"/><rect class="e" width="3.577" height="30.327" transform="matrix(0.714, -0.7, 0.7, 0.714, 27.337, 316.835)"/><line class="e" y1="15.44" x2="22.006" transform="translate(49.843 340.41)"/><rect class="e" width="26.888" height="3.577" transform="translate(48.813 354.38) rotate(-35.06)"/><g transform="translate(13.882 269.526)"><path class="v" d="M254.905,616.905a23.078,23.078,0,0,0-4.761-34.56,13.652,13.652,0,0,0,2.186-7.43,13.168,13.168,0,0,0-25.868-3.784,19.578,19.578,0,0,0-16.84-9.72,19.872,19.872,0,0,0-19.674,20.114,20.488,20.488,0,0,0,1.2,6.913c-.4,0-.8-.061-1.2-.061a15.967,15.967,0,0,0-15.8,16.226,11.368,11.368,0,0,0,.078,1.633,20.131,20.131,0,0,0,7.75,38.474,19.276,19.276,0,0,0,3.4-.3c-.06.665-.1,1.339-.1,2.022a22.224,22.224,0,0,0,22,22.464,21.6,21.6,0,0,0,12.528-4.009,16.148,16.148,0,0,0,10.636,4.009,16.624,16.624,0,0,0,16.416-16.805,7.82,7.82,0,0,0-.06-1.192h.06a17.807,17.807,0,0,0,17.6-18,18.041,18.041,0,0,0-9.547-15.993Z" transform="translate(-162.369 -561.41)"/></g><path class="h" d="M252.867,617.326a21.661,21.661,0,0,0-4.476-32.4,12.814,12.814,0,0,0,2.048-6.973A12.355,12.355,0,0,0,226.16,574.4a18.377,18.377,0,0,0-15.811-9.124,18.68,18.68,0,0,0-18.421,18.887,19.224,19.224,0,0,0,1.132,6.515c-.372,0-.752-.06-1.132-.06a14.991,14.991,0,0,0-14.818,15.155,9.966,9.966,0,0,0,.078,1.529,18.835,18.835,0,0,0-11.128,17.28,18.62,18.62,0,0,0,18.4,18.818,18.1,18.1,0,0,0,3.188-.285c-.052.631-.086,1.261-.086,1.9a20.886,20.886,0,0,0,20.65,21.116,20.235,20.235,0,0,0,11.759-3.758,15.155,15.155,0,0,0,9.971,3.75,15.6,15.6,0,0,0,15.431-15.777,8.08,8.08,0,0,0-.052-1.123h.052a16.71,16.71,0,0,0,16.52-16.9A16.935,16.935,0,0,0,252.867,617.326Z" transform="translate(-148.988 -292.408)"/><rect class="w" width="4.795" height="119.311" transform="translate(66.502 300.812)"/><rect class="e" width="2.411" height="117.635" transform="translate(67.867 302.488)"/><rect class="e" width="29.143" height="2.411" transform="translate(67.659 337.125) rotate(-47.2)"/><rect class="e" width="2.411" height="25.575" transform="matrix(0.596, -0.803, 0.803, 0.596, 47.285, 342.079)"/><path class="x" d="M823.852,295.852a132.194,132.194,0,0,0-189.218-1.426c-50.035,50.441-50.882,132.565-1.944,184.034A132.194,132.194,0,0,0,802.226,497.2l95.56,99.361a6.428,6.428,0,0,0,9.1.181l23.8-22.888a6.428,6.428,0,0,0,.182-9.1L835.309,465.4a132.194,132.194,0,0,0-11.457-169.545ZM794.087,455.625a94.549,94.549,0,1,1,2.592-133.688,94.549,94.549,0,0,1-2.592,133.688Z" transform="translate(-207.529 -250.251)"/><path class="y" d="M667.033,377.85c-10.636,0-10.653,16.52,0,16.52S677.678,377.85,667.033,377.85Z" transform="translate(-216.03 -266.921)"/><path class="z" d="M743.138,316.587c-28.616-.648-54.666,13.712-68.507,35.424-4.519,7.068,8.312,13.314,12.8,6.281,11.465-17.945,33.256-29.376,56.8-28.746,24.693.622,47.166,14.749,59.064,34.353,4.519,7.439,16.338.674,11.854-6.722C800.716,333.357,772.7,317.252,743.138,316.587Z" transform="translate(-218.02 -258.587)"/><path class="m" d="M835.852,290.032a132.194,132.194,0,0,0-189.218-1.426c-50.035,50.441-50.882,132.565-1.944,184.034a132.194,132.194,0,0,0,169.536,18.74l95.559,99.361a6.428,6.428,0,0,0,9.1.181l23.812-22.9a6.428,6.428,0,0,0,.182-9.1l-95.56-99.361A132.194,132.194,0,0,0,835.852,290.032ZM806.087,449.8a94.549,94.549,0,1,1,2.592-133.688A94.549,94.549,0,0,1,806.087,449.8Z" transform="translate(-209.161 -249.46)"/><path class="m" d="M679.033,372c-10.636,0-10.653,16.52,0,16.52S689.678,372,679.033,372Z" transform="translate(-217.662 -266.126)"/><path class="m" d="M755.138,310.767c-28.616-.648-54.666,13.712-68.507,35.424-4.519,7.068,8.312,13.314,12.8,6.281,11.465-17.945,33.256-29.376,56.8-28.746,24.693.622,47.166,14.749,59.064,34.353,4.519,7.439,16.338.674,11.854-6.722C812.716,327.554,784.7,311.441,755.138,310.767Z" transform="translate(-219.652 -257.796)"/></g></svg>