<svg xmlns="http://www.w3.org/2000/svg" viewBox="0 0 1618.5 391"><defs><style>.cls-1,.cls-15,.cls-18,.cls-20,.cls-5{fill:#fff;}.cls-1{stroke:#000;}.cls-15,.cls-2,.cls-6{isolation:isolate;}.cls-15,.cls-18,.cls-2,.cls-20{font-size:12px;}.cls-16,.cls-17,.cls-2,.cls-20,.cls-8{font-family:Helvetica, Helvetica;}.cls-12,.cls-13,.cls-3{fill:none;}.cls-17,.cls-21,.cls-23,.cls-3,.cls-4{stroke:#707070;}.cls-11,.cls-12,.cls-13,.cls-21,.cls-23,.cls-3,.cls-4{stroke-miterlimit:10;}.cls-3,.cls-4{stroke-width:2px;}.cls-3{stroke-dasharray:6 6;}.cls-4,.cls-6{fill:#707070;}.cls-6{font-size:11px;}.cls-15,.cls-18,.cls-6{font-family:Helvetica-Bold, Helvetica;}.cls-22,.cls-7{font-weight:700;}.cls-9{letter-spacing:-0.02em;}.cls-10,.cls-11{fill:#438dd5;}.cls-10,.cls-11,.cls-12{stroke:#3c7fc0;}.cls-13{stroke:#23445d;}.cls-14{fill:#999;stroke:#8a8a8a;}.cls-16{stroke:#fff;}.cls-16,.cls-17,.cls-21,.cls-23{stroke-width:0.5px;}.cls-19{letter-spacing:-0.11em;}.cls-21,.cls-23{font-family:MyriadPro-Regular, Myriad Pro;}.cls-22{font-family:Arial-BoldMT, Arial;}.cls-23{letter-spacing:0em;}</style></defs><title>nivel2-part3Asset 4</title><g id="Layer_2" data-name="Layer 2"><g id="Layer_1-2" data-name="Layer 1"><path class="cls-1" d="M44.47.5H1174c24.28,0,44,8.73,44,19.5V371c0,10.77-19.68,19.5-44,19.5H44.47c-24.28,0-44-8.73-44-19.5V20C.5,9.23,20.18.5,44.47.5Z"/><text class="cls-2" transform="translate(511.96 383.67)">AI [AI module]</text><path class="cls-3" d="M1458,188H1206.24"/><path class="cls-4" d="M1200.24,188l8-4-2,4,2,4Z"/><rect class="cls-5" x="1291" y="174.89" width="85.5" height="27.5"/><text class="cls-6" transform="translate(1292.35 185.25)"><tspan class="cls-7">Date de analizat</tspan><tspan class="cls-8"><tspan x="4.38" y="13.2">[HTT</tspan><tspan class="cls-9" x="28.82" y="13.2">P</tspan><tspan x="35.96" y="13.2" xml:space="preserve"> request]</tspan></tspan></text><rect class="cls-10" x="677.17" y="150.91" width="160" height="110" rx="11" ry="11"/><path class="cls-3" d="M512,206.8l156.58-.88"/><path class="cls-4" d="M675,205.3l-7.77,4.45,1.77-4.12-2.22-3.88Z"/><path class="cls-11" d="M352,168.61c0-37.33,160-37.33,160,0v84c0,37.33-160,37.33-160,0Z"/><path class="cls-12" d="M874.07,253.5"/><path class="cls-12" d="M714.07,253.5"/><path class="cls-13" d="M885.5,52.5"/><path class="cls-13" d="M702.64,52.5"/><path class="cls-3" d="M1031.42,210.54"/><path class="cls-3" d="M885.5,100.5"/><rect class="cls-14" x="1458" y="160.5" width="160" height="110" rx="11" ry="11"/><text class="cls-15" transform="translate(1486.65 184)"><tspan class="cls-7">Backend Locuin</tspan><tspan class="cls-16" x="92.68" y="0">ț</tspan><tspan class="cls-7" x="96.02" y="0">e</tspan><tspan class="cls-8"><tspan x="3.67" y="14.4">[Software system]</tspan></tspan></text><path class="cls-3" d="M1198,215.5h251.76"/><path class="cls-4" d="M1455.76,215.5l-8,4,2-4-2-4Z"/><text class="cls-6" transform="translate(555.72 221.55)"><tspan class="cls-7">Training data</tspan><tspan class="cls-8"><tspan x="20.17" y="13.2">[CSV]</tspan></tspan></text><rect class="cls-5" x="1231.17" y="207.56" width="197.33" height="12.67"/><text class="cls-6" transform="translate(1232.82 216.51)"><tspan class="cls-7">Caracteristicile casei, înso</tspan><tspan class="cls-17" x="138.19" y="0">ț</tspan><tspan class="cls-7" x="141.24" y="0">ite de pre</tspan><tspan class="cls-17" x="190.15" y="0">ț</tspan><tspan class="cls-8"><tspan x="59.41" y="13.2">[HTT</tspan><tspan class="cls-9" x="83.85" y="13.2">P</tspan><tspan x="90.99" y="13.2" xml:space="preserve"> request]</tspan></tspan></text><text class="cls-18" transform="translate(718.51 171.08)"><tspan class="cls-7">ML Algorithm</tspan><tspan class="cls-8"><tspan x="-20.36" y="14.4">[</tspan><tspan class="cls-19" x="-17.03" y="14.4">T</tspan><tspan x="-11.03" y="14.4">echnology: ML.NET]</tspan></tspan></text><text class="cls-20"><tspan x="702.48" y="207.2">Algoritm de Machine</tspan><tspan x="693.12" y="221.6">Learning responsabil de</tspan><tspan x="689.12" y="236">generarea unor prețuri pe</tspan><tspan x="695.47" y="250.4">baza unor caracteristici</tspan></text><text class="cls-20" transform="translate(422.29 202.11)">File<tspan x="-39.69" y="14.4">[</tspan><tspan class="cls-19" x="-36.36" y="14.4">T</tspan><tspan x="-30.36" y="14.4">echnology: CSV]</tspan></text><text class="cls-20" transform="translate(375.26 237.91)">Dataset folosit pentru<tspan x="0.33" y="14.4">antrenarea modulului</tspan></text><text class="cls-20" transform="translate(1479.29 217.97)">Componenta backend<tspan x="-11" y="14.4">locuințe trimite datele unei</tspan><tspan x="-9.67" y="28.8">locuințe pentru generarea</tspan><tspan x="39.03" y="43.2">prețului</tspan></text><path class="cls-12" d="M352,167.44c0,28,160,28,160,0"/><rect class="cls-10" x="26.56" y="156.5" width="160" height="110" rx="11" ry="11"/><text class="cls-18" transform="translate(71.22 176.67)"><tspan class="cls-7">Web crawler</tspan><tspan class="cls-8"><tspan x="-20.36" y="14.4">[</tspan><tspan class="cls-19" x="-17.02" y="14.4">T</tspan><tspan x="-11.02" y="14.4">echnology: Python]</tspan></tspan></text><text class="cls-20"><tspan x="43.87" y="212.79">Algoritm responsabil de</tspan><tspan x="49.53" y="227.19">preluarea automată a</tspan><tspan x="45.86" y="241.59">datelor despre locuințe</tspan><tspan x="44.86" y="255.99">de pe site de imobiliare</tspan></text><path class="cls-3" d="M186.56,211.65l156.58-.88"/><path class="cls-4" d="M349.57,210.16l-7.77,4.45,1.77-4.12-2.22-3.88Z"/><text class="cls-6" transform="translate(252.93 226.41)"><tspan class="cls-7">Data</tspan><tspan class="cls-8"><tspan x="-8.25" y="13.2">[Strings]</tspan></tspan></text><rect class="cls-10" x="1038" y="151.35" width="160" height="110" rx="11" ry="11"/><text class="cls-18" transform="translate(1093.67 171.52)"><tspan class="cls-7">Web API</tspan><tspan class="cls-8"><tspan x="-26.36" y="14.4">[</tspan><tspan class="cls-19" x="-23.02" y="14.4">T</tspan><tspan x="-17.02" y="14.4">echnology: .NET]</tspan></tspan></text><text class="cls-20"><tspan x="1067.64" y="207.64">API responsabil de</tspan><tspan x="1073.98" y="222.04">comunicarea cu </tspan><tspan x="1088.65" y="236.44">backend-ul</tspan></text><path class="cls-3" d="M837.17,227.29l195.33-.44"/><path class="cls-4" d="M1038,226l-7.77,4.45,1.77-4.12-2.22-3.88Z"/><text class="cls-6" transform="translate(860.68 242.81)"><tspan class="cls-7">Caracteristici înso</tspan><tspan class="cls-21" x="95.37" y="0">ț</tspan><tspan class="cls-22" x="99.02" y="0">ite de pre</tspan><tspan class="cls-23" x="147.92" y="0">ț</tspan><tspan class="cls-8"><tspan x="54.08" y="13.2">[Objects]</tspan></tspan></text><path class="cls-3" d="M837.17,199.27l200.83-.45"/><path class="cls-4" d="M834.26,200l7.87-4.25-1.87,4.07,2.12,3.93Z"/><text class="cls-6" transform="translate(898.6 176.89)"><tspan class="cls-7">Caracteristici</tspan><tspan class="cls-8"><tspan x="13.15" y="13.2">[Objects]</tspan></tspan></text></g></g></svg>