<svg xmlns="http://www.w3.org/2000/svg" viewBox="0 0 1796.33 491.1"><defs><style>.cls-1,.cls-14,.cls-19,.cls-24,.cls-25,.cls-6{fill:#fff;}.cls-1{stroke:#000;}.cls-14,.cls-2,.cls-20,.cls-23,.cls-6{isolation:isolate;}.cls-14,.cls-2,.cls-24,.cls-25,.cls-6{font-size:12px;}.cls-14,.cls-17,.cls-2,.cls-21,.cls-25,.cls-8{font-family:Helvetica, Helvetica;}.cls-3{letter-spacing:-0.04em;}.cls-4{letter-spacing:-0.05em;}.cls-12,.cls-18,.cls-5{fill:#438dd5;}.cls-12,.cls-13,.cls-5{stroke:#3c7fc0;}.cls-20,.cls-23,.cls-24,.cls-6{font-family:Helvetica-Bold, Helvetica;}.cls-23,.cls-7{font-weight:700;}.cls-9{letter-spacing:-0.11em;}.cls-10,.cls-13,.cls-15{fill:none;}.cls-10,.cls-11,.cls-21{stroke:#707070;}.cls-10,.cls-11,.cls-12,.cls-13,.cls-15{stroke-miterlimit:10;}.cls-10,.cls-11{stroke-width:2px;}.cls-10{stroke-dasharray:6 6;}.cls-11,.cls-20,.cls-23{fill:#707070;}.cls-15{stroke:#23445d;}.cls-16{fill:#999;stroke:#8a8a8a;}.cls-17{stroke:#fff;}.cls-17,.cls-21{stroke-width:0.5px;}.cls-18{stroke:#78a8d8;}.cls-20,.cls-23{font-size:11px;}.cls-22{letter-spacing:-0.02em;}</style></defs><title>Asset 5</title><g id="Layer_2" data-name="Layer 2"><g id="Layer_1-2" data-name="Layer 1"><path class="cls-1" d="M245.79.5H1363.37c20.14,0,36.46,11,36.46,24.5V466c0,13.53-16.32,24.5-36.46,24.5H245.79c-20.14,0-36.46-11-36.46-24.5V25C209.33,11.47,225.66.5,245.79.5Z"/><text class="cls-2" transform="translate(736 485.33)">M<tspan class="cls-3" x="10" y="0">L</tspan><tspan class="cls-4" x="16.23" y="0"> </tspan><tspan x="18.91" y="0">Algorithm [ML.NET]</tspan></text><rect class="cls-5" x="606.65" y="184.68" width="160" height="110" rx="11" ry="11"/><text class="cls-6" transform="translate(647.99 201.34)"><tspan class="cls-7">ML Algorithm</tspan><tspan class="cls-8"><tspan x="-20.36" y="14.4">[</tspan><tspan class="cls-9" x="-17.03" y="14.4">T</tspan><tspan x="-11.03" y="14.4">echnology: ML.NET]</tspan><tspan x="-16.03" y="43.2">Algoritm de Machine</tspan><tspan x="-25.39" y="57.6">Learning responsabil de</tspan><tspan x="-29.38" y="72">generarea unor prețuri pe</tspan><tspan x="-23.03" y="86.4">baza unor caracteristici</tspan></tspan></text><path class="cls-10" d="M155.5,244.75,301.21,244"/><path class="cls-11" d="M307.32,243.35,299.67,248l1.66-4.15L299,240Z"/><path class="cls-12" d="M.5,197.68c0-37.33,160-37.33,160,0v84c0,37.33-160,37.33-160,0Z"/><path class="cls-13" d="M.67,195.34c0,18.59,159.61,18.59,159.61,0"/><text class="cls-14" transform="translate(67.15 226.95)">File<tspan x="-39.69" y="14.4">[</tspan><tspan class="cls-9" x="-36.36" y="14.4">T</tspan><tspan x="-30.36" y="14.4">echnology: CSV]</tspan><tspan x="-48.7" y="43.2">Dataset folosit pentru </tspan><tspan x="-46.7" y="57.6">antrenarea modulului</tspan></text><path class="cls-15" d="M508.69,30.83"/><path class="cls-15" d="M325.83,30.83"/><path class="cls-10" d="M601.65,236.73"/><path class="cls-10" d="M508.69,78.83"/><rect class="cls-16" x="1635.83" y="184.68" width="160" height="110" rx="11" ry="11"/><text class="cls-6" transform="translate(1664.49 201.34)"><tspan class="cls-7">Backend Locuin</tspan><tspan class="cls-17" x="92.68" y="0">ț</tspan><tspan class="cls-7" x="96.02" y="0">e</tspan><tspan class="cls-8"><tspan x="2.66" y="14.4">[Software System]</tspan><tspan x="-7.36" y="43.2">Componenta backend</tspan><tspan x="-5.35" y="57.6">locuințe trimite datele</tspan><tspan x="-1.03" y="72">unei locuințe pentru</tspan><tspan x="2.65" y="86.4">generarea prețului</tspan></tspan></text><path class="cls-10" d="M1383,252.25h244.59"/><path class="cls-11" d="M1633.59,252.25l-8,4,2-4-2-4Z"/><rect class="cls-18" x="310.24" y="184.68" width="160" height="110" rx="11" ry="11"/><text class="cls-6" transform="translate(365.25 208.89)"><tspan class="cls-7">ML Model</tspan><tspan class="cls-8"><tspan x="-31.36" y="14.4">[</tspan><tspan class="cls-9" x="-28.03" y="14.4">T</tspan><tspan x="-22.03" y="14.4">echnology: ML.NET]</tspan><tspan x="-30.37" y="43.2">Model obținut în urma</tspan><tspan x="-29.7" y="57.6">antrenării algoritmului</tspan></tspan></text><path class="cls-18" d="M1227.95,184.68h143.61a11.23,11.23,0,0,1,11.45,11v88a11.23,11.23,0,0,1-11.45,11H1227.95a11.23,11.23,0,0,1-11.45-11v-88A11.23,11.23,0,0,1,1227.95,184.68Z"/><text class="cls-6" transform="translate(1274.08 204.83)"><tspan class="cls-7">WEB API</tspan><tspan class="cls-8"><tspan x="-25.02" y="14.4">[</tspan><tspan class="cls-9" x="-21.69" y="14.4">T</tspan><tspan x="-15.69" y="14.4">echnology: .NET]</tspan><tspan x="-24.7" y="43.2">API responsabil de</tspan><tspan x="-18.35" y="57.6">comunicarea cu </tspan><tspan x="-3.69" y="72">backend-ul</tspan></tspan></text><path class="cls-10" d="M477.22,244l129.44,0"/><path class="cls-11" d="M470.24,244.22l7.9-4.21-1.9,4.05,2.11,3.94Z"/><path class="cls-10" d="M1065.71,238.44h152.13"/><path class="cls-11" d="M1067.62,238.51l8-4.07-2,4,2,4Z"/><rect class="cls-19" x="170.36" y="206.08" width="109" height="34.5"/><text class="cls-20" transform="translate(192.28 223.33)"><tspan class="cls-7">Training data</tspan><tspan class="cls-8"><tspan x="20.17" y="13.2">[CSV]</tspan></tspan></text><rect class="cls-19" x="1413.42" y="232" width="195.25" height="27"/><text class="cls-20" transform="translate(1414.15 250.11)"><tspan class="cls-7">Caracteristicile casei, înso</tspan><tspan class="cls-21" x="138.19" y="0">ț</tspan><tspan class="cls-7" x="141.24" y="0">ite de pre</tspan><tspan class="cls-21" x="190.15" y="0">ț</tspan><tspan class="cls-8"><tspan x="79.19" y="13.2">[HTTP]</tspan></tspan></text><rect class="cls-5" x="907.62" y="184.68" width="160" height="110" rx="11" ry="11"/><text class="cls-6" transform="translate(928.61 210.01)"><tspan class="cls-7">MVC Price controller</tspan><tspan class="cls-8"><tspan x="8.33" y="14.4">[</tspan><tspan class="cls-9" x="11.66" y="14.4">T</tspan><tspan x="17.66" y="14.4">echnology: .NET]</tspan><tspan x="-12.02" y="43.2">Requesturile sunt realizate</tspan><tspan x="8.32" y="57.6" xml:space="preserve"> folosind ruta /price</tspan></tspan></text><path class="cls-10" d="M766.65,241.69h141"/><path class="cls-11" d="M766.65,241.67l7.92-4.17-1.93,4,2.08,4Z"/><path class="cls-10" d="M1635.59,220.64H1392.33"/><path class="cls-11" d="M1377.83,220.64"/><path class="cls-11" d="M1385.83,224.64"/><rect class="cls-19" x="1467.21" y="207.47" width="88.13" height="27.5"/><text class="cls-20" transform="translate(1469.94 217.89)"><tspan class="cls-7">Date de analizat</tspan><tspan class="cls-8"><tspan x="4.38" y="13.2">[HTT</tspan><tspan class="cls-22" x="28.82" y="13.2">P</tspan><tspan x="35.96" y="13.2" xml:space="preserve"> request]</tspan></tspan></text><path class="cls-11" d="M1383,220.6l8-4-2,4,2,4Z"/><text class="cls-23" transform="translate(532.36 233.48)">Uses</text><text class="cls-23" transform="translate(817.61 233.48)">Uses</text><text class="cls-23" transform="translate(1123.61 233.48)">Uses</text><rect class="cls-5" x="0.5" y="14.83" width="160" height="110" rx="11" ry="11"/><text class="cls-24" transform="translate(45.15 35)"><tspan class="cls-7">Web crawler</tspan><tspan class="cls-8"><tspan x="-20.36" y="14.4">[</tspan><tspan class="cls-9" x="-17.02" y="14.4">T</tspan><tspan x="-11.02" y="14.4">echnology: Python]</tspan></tspan></text><text class="cls-25"><tspan x="17.8" y="71.12">Algoritm responsabil de</tspan><tspan x="23.46" y="85.52">preluarea automată a</tspan><tspan x="19.79" y="99.92">datelor despre locuințe</tspan><tspan x="18.8" y="114.32">de pe site de imobiliare</tspan></text><path class="cls-10" d="M76.81,124.83v39.4"/><path class="cls-11" d="M77,166l-4.16-7.92,4,1.92,4-2.08Z"/><text class="cls-20" transform="translate(93.52 138.95)"><tspan class="cls-7">Data</tspan><tspan class="cls-8"><tspan x="-8.25" y="13.2">[Strings]</tspan></tspan></text></g></g></svg>