<svg xmlns="http://www.w3.org/2000/svg" viewBox="0 0 1471 492.77"><defs><style>.cls-1,.cls-14,.cls-20,.cls-6{fill:#fff;}.cls-1{stroke:#000;}.cls-14,.cls-2,.cls-21,.cls-6{isolation:isolate;}.cls-14,.cls-2,.cls-6{font-size:12px;}.cls-14,.cls-18,.cls-2,.cls-22,.cls-23,.cls-8{font-family:Helvetica, Helvetica;}.cls-3{letter-spacing:-0.04em;}.cls-4{letter-spacing:-0.05em;}.cls-12,.cls-5{fill:#438dd5;}.cls-12,.cls-13,.cls-5{stroke:#3c7fc0;}.cls-21,.cls-6{font-family:Helvetica-Bold, Helvetica;}.cls-7{font-weight:700;}.cls-9{letter-spacing:-0.11em;}.cls-10,.cls-13,.cls-16{fill:none;}.cls-10,.cls-11,.cls-22,.cls-23{stroke:#707070;}.cls-10,.cls-11,.cls-12,.cls-13,.cls-15,.cls-16,.cls-23{stroke-miterlimit:10;}.cls-10,.cls-11{stroke-width:2px;}.cls-10{stroke-dasharray:6 6;}.cls-11,.cls-21{fill:#707070;}.cls-15{fill:#bac8d3;}.cls-15,.cls-16{stroke:#23445d;}.cls-17{fill:#999;stroke:#8a8a8a;}.cls-18{stroke:#fff;}.cls-18,.cls-22,.cls-23{stroke-width:0.5px;}.cls-19{fill:#85bbf0;stroke:#78a8d8;}.cls-21{font-size:11px;}</style></defs><title>3Asset 2</title><g id="Layer_2" data-name="Layer 2"><g id="Layer_1-2" data-name="Layer 1"><rect class="cls-1" x="270.5" y="1" width="800" height="490" rx="24.5" ry="24.5"/><text class="cls-2" transform="translate(292.67 487)">M<tspan class="cls-3" x="10" y="0">L</tspan><tspan class="cls-4" x="16.23" y="0"> </tspan><tspan x="18.91" y="0">Algorithm [Python]</tspan></text><rect class="cls-5" x="590.5" y="60.5" width="160" height="110" rx="11" ry="11"/><text class="cls-6" transform="translate(631.84 77.17)"><tspan class="cls-7">ML Algorithm</tspan><tspan class="cls-8"><tspan x="-17.04" y="14.4">[</tspan><tspan class="cls-9" x="-13.71" y="14.4">T</tspan><tspan x="-7.71" y="14.4">echnology: Python]</tspan><tspan x="-16.03" y="43.2">Algoritm de Machine</tspan><tspan x="-25.39" y="57.6">Learning responsabil de</tspan><tspan x="-29.38" y="72">generarea unor prețuri pe</tspan><tspan x="-23.03" y="86.4">baza unor caracteristici</tspan></tspan></text><path class="cls-10" d="M160.5,380.78,275,251.66"/><path class="cls-11" d="M279,247.17l-2.32,8.64L275,251.66l-4.31-1.16Z"/><path class="cls-12" d="M.5,338.78c0-37.33,160-37.33,160,0v84c0,37.33-160,37.33-160,0Z"/><path class="cls-13" d="M.5,338.78c0,28,160,28,160,0"/><text class="cls-14" transform="translate(51.13 373.5)">Database<tspan x="-41.34" y="14.4">[</tspan><tspan class="cls-9" x="-38.01" y="14.4">T</tspan><tspan x="-32.01" y="14.4">echnology: JSON/CSV]</tspan><tspan x="-32.68" y="43.2">Dataset folosit pentru </tspan><tspan x="-30.69" y="57.6">antrenarea modulului</tspan></text><path class="cls-15" d="M.5,37.88C.5-12,183.36-12,183.36,37.88V150C183.36,199.85.5,199.85.5,150Z"/><path class="cls-16" d="M.5,32.5c0,32,182.86,32,182.86,0"/><text class="cls-2" transform="translate(66.25 70.84)">Database<tspan x="-42.8" y="14.4">[</tspan><tspan class="cls-9" x="-39.47" y="14.4">T</tspan><tspan x="-33.47" y="14.4">echnology: SQL/NoSQ</tspan><tspan class="cls-3" x="87.93" y="14.4">L</tspan><tspan x="-1.67" y="28.8">Database]</tspan><tspan x="-53.04" y="57.6">Bază de date cu locuințe deja</tspan><tspan x="-38.36" y="72">introduse folosită pentru</tspan><tspan x="-56.7" y="86.4">antrenarea modulului în caz de</tspan><tspan x="8.68" y="100.8">restart</tspan></text><path class="cls-10" d="M183.36,80.5l93,157.9"/><path class="cls-11" d="M279.37,243.57l-7.51-4.86,4.46-.31,2.43-3.75Z"/><rect class="cls-17" x="1310.5" y="190.5" width="160" height="110" rx="11" ry="11"/><text class="cls-6" transform="translate(1339.15 206.5)"><tspan class="cls-7">Backend Locuin</tspan><tspan class="cls-18" x="92.68" y="0">ț</tspan><tspan class="cls-7" x="96.02" y="0">e</tspan><tspan class="cls-8"><tspan x="2.66" y="14.4">[Software System]</tspan><tspan x="-7.36" y="43.2">Componenta backend</tspan><tspan x="-5.35" y="57.6">locuințe trimite datele</tspan><tspan x="-1.03" y="72">unei locuințe pentru</tspan><tspan x="2.65" y="86.4">generarea prețului</tspan></tspan></text><path class="cls-10" d="M1060.5,245.5h241.76"/><path class="cls-11" d="M1308.26,245.5l-8,4,2-4-2-4Z"/><rect class="cls-19" x="280.5" y="190.5" width="160" height="110" rx="11" ry="11"/><text class="cls-6" transform="translate(332.84 223.67)"><tspan class="cls-7">ML Model</tspan><tspan class="cls-8"><tspan x="-28.04" y="14.4">[</tspan><tspan class="cls-9" x="-24.71" y="14.4">T</tspan><tspan x="-18.71" y="14.4">echnology: Python]</tspan><tspan x="-26.37" y="43.2">Model folosit pentru </tspan><tspan x="-33.71" y="57.6">antrenarea algoritmului</tspan></tspan></text><path class="cls-19" d="M911.95,190.5h143.61a11.23,11.23,0,0,1,11.45,11v88a11.23,11.23,0,0,1-11.45,11H911.95a11.23,11.23,0,0,1-11.45-11v-88A11.23,11.23,0,0,1,911.95,190.5Z"/><text class="cls-6" transform="translate(926.42 206.5)"><tspan class="cls-7">Componenta Export</tspan><tspan class="cls-8"><tspan x="1.63" y="14.4">[</tspan><tspan class="cls-9" x="4.97" y="14.4">T</tspan><tspan x="10.97" y="14.4">echnology: Python]</tspan><tspan x="-3.71" y="43.2">Componenta de export</tspan><tspan x="-21.05" y="57.6">responsabilă de comunicarea</tspan><tspan x="19.98" y="72">cu backend-ul</tspan></tspan></text><path class="cls-10" d="M440.5,245.5,584.28,120.89"/><path class="cls-11" d="M588.81,117l-3.43,8.27-1.1-4.34-4.13-1.71Z"/><path class="cls-10" d="M750.5,115.5,894.28,240.11"/><path class="cls-11" d="M898.81,244l-8.66-2.22,4.13-1.71,1.1-4.34Z"/><rect class="cls-20" x="185.75" y="161.14" width="103.75" height="26.25"/><text class="cls-21" transform="translate(187.44 170.5)"><tspan class="cls-7">JSON training data</tspan><tspan class="cls-8"><tspan x="31.78" y="13.2">[JSON]</tspan></tspan></text><rect class="cls-20" x="166.03" y="298.97" width="109" height="34.5"/><text class="cls-21" transform="translate(172.97 316.58)"><tspan class="cls-7">JSON training data</tspan><tspan class="cls-8"><tspan x="31.78" y="13.2">[JSON]</tspan></tspan></text><rect class="cls-20" x="1088.08" y="233.67" width="195.25" height="27"/><text class="cls-21" transform="translate(1088.82 243.37)"><tspan class="cls-7">Caracteristicile casei, înso</tspan><tspan class="cls-22" x="138.19" y="0">ț</tspan><tspan class="cls-7" x="141.24" y="0">ite de pre</tspan><tspan class="cls-22" x="190.15" y="0">ț</tspan><tspan class="cls-8"><tspan x="78.88" y="13.2">[JSON]</tspan></tspan></text><rect class="cls-20" x="423.28" y="149.73" width="161" height="28.08"/><text class="cls-21" transform="translate(413.24 159.45)"><tspan class="cls-7">Datele json.load pentru prelucrat</tspan><tspan class="cls-8"><tspan x="45.53" y="13.2">[Python Objects]</tspan></tspan></text><rect class="cls-20" x="772.25" y="149.4" width="156.5" height="28.74"/><text class="cls-21" transform="translate(768.66 160.25)"><tspan class="cls-7">Datele locuin</tspan><tspan class="cls-22" x="68.46" y="0">ț</tspan><tspan class="cls-7" x="71.52" y="0">ei, înso</tspan><tspan class="cls-23" x="109.41" y="0">ț</tspan><tspan class="cls-7" x="112.47" y="0">ite de pre</tspan><tspan class="cls-22" x="161.37" y="0">ț</tspan><tspan class="cls-8"><tspan x="44.61" y="13.2">[Python Object]</tspan></tspan></text></g></g></svg>