<svg xmlns="http://www.w3.org/2000/svg" viewBox="0 0 941 392.77"><defs><style>.cls-1,.cls-17,.cls-20,.cls-21,.cls-5{fill:#fff;}.cls-1{stroke:#000;}.cls-17,.cls-2,.cls-6{isolation:isolate;}.cls-17,.cls-2,.cls-20,.cls-21{font-size:12px;}.cls-18,.cls-19,.cls-2,.cls-21,.cls-8{font-family:Helvetica, Helvetica;}.cls-11,.cls-13,.cls-3{fill:none;}.cls-19,.cls-3,.cls-4{stroke:#707070;}.cls-10,.cls-11,.cls-12,.cls-13,.cls-3,.cls-4{stroke-miterlimit:10;}.cls-3,.cls-4{stroke-width:2px;}.cls-3{stroke-dasharray:6 6;}.cls-4,.cls-6{fill:#707070;}.cls-6{font-size:11px;}.cls-17,.cls-20,.cls-6{font-family:Helvetica-Bold, Helvetica;}.cls-7{font-weight:700;}.cls-10,.cls-9{fill:#438dd5;}.cls-10,.cls-11,.cls-9{stroke:#3c7fc0;}.cls-12{fill:#bac8d3;}.cls-12,.cls-13{stroke:#23445d;}.cls-14{letter-spacing:-0.11em;}.cls-15{letter-spacing:-0.04em;}.cls-16{fill:#999;stroke:#8a8a8a;}.cls-18{stroke:#fff;stroke-width:0.75px;}.cls-19{stroke-width:0.5px;}</style></defs><title>nivel2Asset 1</title><g id="Layer_2" data-name="Layer 2"><g id="Layer_1-2" data-name="Layer 1"><rect class="cls-1" x="0.5" y="0.5" width="540" height="390" rx="19.5" ry="19.5"/><text class="cls-2" transform="translate(25.14 387)">AI [AI module]</text><path class="cls-3" d="M780.5,188H528.74"/><path class="cls-4" d="M522.74,188l8-4-2,4,2,4Z"/><rect class="cls-5" x="613.5" y="174.89" width="85.5" height="27.5"/><text class="cls-6" transform="translate(614.85 185.25)"><tspan class="cls-7">Date de analizat</tspan><tspan class="cls-8"><tspan x="23.84" y="13.2">[JSON]</tspan></tspan></text><rect class="cls-9" x="360.5" y="160.5" width="160" height="110" rx="11" ry="11"/><path class="cls-3" d="M202.65,295.5l150.5-76.28"/><path class="cls-4" d="M358.51,216.51l-5.33,7.19,0-4.48-3.59-2.66Z"/><path class="cls-10" d="M36.57,253.5c0-37.33,160-37.33,160,0v84c0,37.33-160,37.33-160,0Z"/><path class="cls-11" d="M36.57,253.5c0,28,160,28,160,0"/><path class="cls-12" d="M25.14,55.5C25.14,8.83,208,8.83,208,55.5v105c0,46.67-182.86,46.67-182.86,0Z"/><path class="cls-13" d="M25.14,52.5c0,32,182.86,32,182.86,0"/><text class="cls-2"><tspan x="46.76" y="110.32">[</tspan><tspan class="cls-14" x="50.09" y="110.32">T</tspan><tspan x="56.09" y="110.32">echnology: SQL/NOSQ</tspan><tspan class="cls-15" x="180.15" y="110.32">L</tspan><tspan x="89.22" y="124.72">Database]</tspan></text><path class="cls-3" d="M208,100.5l145.92,110"/><path class="cls-4" d="M358.71,214.15l-8.79-1.62,4-2,.82-4.4Z"/><rect class="cls-5" x="226.75" y="150.39" width="105.25" height="26.5"/><text class="cls-6" transform="translate(228.39 160.5)"><tspan class="cls-7">JSON training data</tspan><tspan class="cls-8"><tspan x="31.78" y="13.2">[JSON]</tspan></tspan></text><rect class="cls-16" x="780.5" y="160.5" width="160" height="110" rx="11" ry="11"/><text class="cls-17" transform="translate(809.15 184)"><tspan class="cls-7">Backend Locuin</tspan><tspan class="cls-18" x="92.68" y="0">ț</tspan><tspan class="cls-7" x="96.02" y="0">e</tspan><tspan class="cls-8"><tspan x="3.67" y="14.4">[Software system]</tspan></tspan></text><path class="cls-3" d="M520.5,215.5H772.26"/><path class="cls-4" d="M778.26,215.5l-8,4,2-4-2-4Z"/><text class="cls-2" transform="translate(41.42 139.42)">Baza de date cu locuințe deja <tspan x="14.68" y="14.4">introduse, folosită pentru</tspan><tspan x="6.35" y="28.8">antrenarea modulului în caz</tspan><tspan x="55.05" y="43.2">de restart</tspan></text><text class="cls-2" transform="translate(91.81 94)">Database</text><rect class="cls-5" x="226.75" y="246.89" width="105.25" height="27.61"/><text class="cls-6" transform="translate(228.39 257.36)"><tspan class="cls-7">JSON training data</tspan><tspan class="cls-8"><tspan x="31.78" y="13.2">[JSON]</tspan></tspan></text><rect class="cls-5" x="553.67" y="207.56" width="197.33" height="12.67"/><text class="cls-6" transform="translate(555.32 216.51)"><tspan class="cls-7">Caracteristicile casei, înso</tspan><tspan class="cls-19" x="138.19" y="0">ț</tspan><tspan class="cls-7" x="141.24" y="0">ite de pre</tspan><tspan class="cls-19" x="190.15" y="0">ț</tspan><tspan class="cls-8"><tspan x="78.88" y="13.2">[JSON]</tspan></tspan></text><text class="cls-20" transform="translate(401.84 180.67)"><tspan class="cls-7">ML Algorithm</tspan><tspan class="cls-8"><tspan x="-17.04" y="14.4">[</tspan><tspan class="cls-14" x="-13.71" y="14.4">T</tspan><tspan x="-7.71" y="14.4">echnology: Python]</tspan></tspan></text><text class="cls-21"><tspan x="385.81" y="216.79">Algoritm de Machine</tspan><tspan x="376.45" y="231.19">Learning responsabil de</tspan><tspan x="372.46" y="245.59">generarea unor prețuri pe</tspan><tspan x="378.81" y="259.99">baza unor caracteristici</tspan></text><text class="cls-21" transform="translate(90.89 290.39)">Database<tspan x="-41.34" y="14.4">[</tspan><tspan class="cls-14" x="-38.01" y="14.4">T</tspan><tspan x="-32.01" y="14.4">echnology: JSON/CSV]</tspan></text><text class="cls-21" transform="translate(59.87 331.39)">Dataset folosit pentru<tspan x="0.33" y="14.4">antrenarea modulului</tspan></text><text class="cls-21" transform="translate(801.79 217.97)">Componenta backend<tspan x="-11" y="14.4">locuințe trimite datele unei</tspan><tspan x="-9.67" y="28.8">locuințe pentru generarea</tspan><tspan x="39.03" y="43.2">prețului</tspan></text></g></g></svg>