<svg xmlns="http://www.w3.org/2000/svg" viewBox="0 0 581 111"><defs><style>.cls-1{fill:#999;stroke:#8a8a8a;}.cls-10,.cls-2{isolation:isolate;font-family:Helvetica-Bold, Helvetica;}.cls-2{font-size:12px;}.cls-2,.cls-9{fill:#fff;}.cls-3{font-weight:700;}.cls-4{stroke:#fcfcfc;}.cls-11,.cls-4{stroke-width:0.5px;}.cls-11,.cls-4,.cls-5{font-family:Helvetica, Helvetica;}.cls-6{fill:#1168bd;stroke:#1168bd;}.cls-7{fill:none;stroke-dasharray:6 6;}.cls-11,.cls-7,.cls-8{stroke:#707070;}.cls-7,.cls-8{stroke-miterlimit:10;stroke-width:2px;}.cls-10,.cls-8{fill:#707070;}.cls-10{font-size:11px;}</style></defs><title>Asset 1</title><g id="Layer_2" data-name="Layer 2"><g id="Layer_1-2" data-name="Layer 1"><rect class="cls-1" x="0.5" y="0.5" width="160" height="110" rx="11" ry="11"/><text class="cls-2" transform="translate(29.15 17.33)"><tspan class="cls-3">Backend Locuin</tspan><tspan class="cls-4" x="92.68" y="0">ț</tspan><tspan class="cls-3" x="96.02" y="0">e</tspan><tspan class="cls-5"><tspan x="3.67" y="14.4">[Software system]</tspan><tspan x="-7.36" y="43.2">Componenta backend</tspan><tspan x="-18.36" y="57.6">locuințe trimite datele unei</tspan><tspan x="-17.04" y="72">locuințe pentru generarea</tspan><tspan x="31.67" y="86.4">prețului</tspan></tspan></text><rect class="cls-6" x="420.5" y="0.5" width="160" height="110" rx="11" ry="11"/><text class="cls-2" transform="translate(475.17 21.25)"><tspan class="cls-3">Modul AI</tspan><tspan class="cls-5"><tspan x="-23.36" y="14.4">[Software System]</tspan><tspan x="-49.73" y="43.2">Pe baza datelor obținute de </tspan><tspan x="-48.72" y="57.6">la modulul backend locuințe</tspan><tspan x="-28.38" y="72">este generat un preț</tspan></tspan></text><path class="cls-7" d="M160.5,55.5H412.26"/><path class="cls-8" d="M418.26,55.5l-8,4,2-4-2-4Z"/><path class="cls-7" d="M420.5,83H168.74"/><path class="cls-8" d="M162.74,83l8-4-2,4,2,4Z"/><rect class="cls-9" x="192.75" y="70.64" width="195.25" height="27"/><rect class="cls-9" x="248.5" y="43.89" width="83.75" height="25"/><text class="cls-10" transform="translate(248.52 53)"><tspan class="cls-3">Date de analizat</tspan><tspan class="cls-5"><tspan x="23.84" y="13.2">[JSON]</tspan></tspan></text><text class="cls-10" transform="translate(193.49 80.33)"><tspan class="cls-3">Caracteristicile casei, înso</tspan><tspan class="cls-11" x="138.19" y="0">ț</tspan><tspan class="cls-3" x="141.24" y="0">ite de pre</tspan><tspan class="cls-11" x="190.15" y="0">ț</tspan><tspan class="cls-5"><tspan x="78.88" y="13.2">[JSON]</tspan></tspan></text></g></g></svg>