<svg xmlns="http://www.w3.org/2000/svg" width="512.001" height="512.001" viewBox="0 0 512.001 512.001">
  <path id="copyright" d="M256,512A256,256,0,0,1,74.98,74.979,256,256,0,0,1,437.02,437.02,254.328,254.328,0,0,1,256,512Zm0-472C136.9,40,40,136.9,40,256s96.9,216,216,216,216-96.9,216-216S375.1,40,256,40ZM361.359,361.359l-28.285-28.285a109,109,0,1,1,0-154.148l28.285-28.285c-58.1-58.094-152.625-58.094-210.719,0s-58.094,152.625,0,210.719a149.171,149.171,0,0,0,210.718,0Zm0,0" transform="translate(0 0.001)" fill="#fff"/>
</svg>
